<svg xmlns="http://www.w3.org/2000/svg" version="1.1" xmlns:xlink="http://www.w3.org/1999/xlink" xmlns:svgjs="http://svgjs.dev/svgjs" width="120" height="auto" viewBox="0 0 1500 935"><g transform="matrix(1,0,0,1,-0.9090909090909918,0.3785425101214628)"><svg viewBox="0 0 396 247" data-background-color="#ffffff" preserveAspectRatio="xMidYMid meet" height="935" width="1500" xmlns="http://www.w3.org/2000/svg" xmlns:xlink="http://www.w3.org/1999/xlink"><g id="tight-bounds" transform="matrix(1,0,0,1,0.2400000000000091,-0.09999999999999432)"><svg viewBox="0 0 395.52 247.2" height="247.2" width="395.52"><g><svg></svg></g><g><svg viewBox="0 0 395.52 247.2" height="247.2" width="395.52"><g transform="matrix(1,0,0,1,75.54432,98.02131902350214)"><svg viewBox="0 0 244.43135999999998 51.15736195299571" height="51.15736195299571" width="244.43135999999998"><g><svg viewBox="0 0 244.43135999999998 51.15736195299571" height="51.15736195299571" width="244.43135999999998"><g><svg viewBox="0 0 362.47018089606996 75.86186257470433" height="51.15736195299571" width="244.43135999999998"><g transform="matrix(1,0,0,1,118.03882089606999,11.28393643863695)"><svg viewBox="0 0 244.43135999999998 53.29398969743043" height="53.29398969743043" width="244.43135999999998"><g id="textblocktransform"><svg viewBox="0 0 244.43135999999998 53.29398969743043" height="53.29398969743043" width="244.43135999999998" id="textblock"><g><svg viewBox="0 0 244.43135999999998 53.29398969743043" height="53.29398969743043" width="244.43135999999998"><g transform="matrix(1,0,0,1,0,0)"><svg width="244.43135999999998" viewBox="1.2 -35.01 160.56 35.01" height="53.29398969743043" data-palette-color="#598392"><path d="M1.2-24.51L1.2-24.51Q1.2-26.68 2.03-28.59 2.86-30.49 4.28-31.92 5.71-33.35 7.62-34.18 9.52-35.01 11.69-35.01L11.69-35.01 27.76-35.01 27.76-28 11.69-28Q10.96-28 10.33-27.73 9.69-27.47 9.22-26.99 8.74-26.51 8.47-25.88 8.2-25.24 8.2-24.51L8.2-24.51Q8.2-23.78 8.47-23.13 8.74-22.49 9.22-22.01 9.69-21.53 10.33-21.26 10.96-21 11.69-21L11.69-21 18.7-21Q20.87-21 22.79-20.18 24.71-19.36 26.14-17.93 27.56-16.5 28.38-14.59 29.2-12.67 29.2-10.5L29.2-10.5Q29.2-8.33 28.38-6.42 27.56-4.52 26.14-3.09 24.71-1.66 22.79-0.83 20.87 0 18.7 0L18.7 0 3.15 0 3.15-7.01 18.7-7.01Q19.43-7.01 20.07-7.28 20.7-7.54 21.18-8.02 21.66-8.5 21.92-9.13 22.19-9.77 22.19-10.5L22.19-10.5Q22.19-11.23 21.92-11.87 21.66-12.5 21.18-12.98 20.7-13.45 20.07-13.72 19.43-13.99 18.7-13.99L18.7-13.99 11.69-13.99Q9.52-13.99 7.62-14.82 5.71-15.65 4.28-17.08 2.86-18.51 2.03-20.42 1.2-22.34 1.2-24.51ZM40.38-13.99L54.39-13.99 54.39-21Q54.39-22.44 53.84-23.72 53.29-25 52.34-25.95 51.39-26.9 50.11-27.45 48.83-28 47.39-28L47.39-28Q45.94-28 44.66-27.45 43.38-26.9 42.43-25.95 41.48-25 40.93-23.72 40.38-22.44 40.38-21L40.38-21 40.38-13.99ZM61.4-21L61.4 0 54.39 0 54.39-7.01 40.38-7.01 40.38 0 33.4 0 33.4-21Q33.4-23.9 34.49-26.45 35.59-29 37.49-30.91 39.38-32.81 41.93-33.91 44.48-35.01 47.39-35.01L47.39-35.01Q50.29-35.01 52.84-33.91 55.39-32.81 57.3-30.91 59.2-29 60.3-26.45 61.4-23.9 61.4-21L61.4-21ZM81.49-28L74.48-28 74.48-13.99 81.49-13.99Q82.93-13.99 84.2-14.54 85.47-15.09 86.42-16.04 87.37-16.99 87.92-18.27 88.47-19.56 88.47-21L88.47-21Q88.47-22.44 87.92-23.72 87.37-25 86.42-25.95 85.47-26.9 84.2-27.45 82.93-28 81.49-28L81.49-28ZM74.48-7.01L74.48 0 67.48 0 67.48-35.01 81.49-35.01Q83.42-35.01 85.2-34.51 86.98-34.01 88.53-33.09 90.08-32.18 91.36-30.9 92.65-29.61 93.56-28.05 94.48-26.49 94.98-24.71 95.48-22.92 95.48-21L95.48-21Q95.48-19.19 95.03-17.48 94.58-15.77 93.73-14.23 92.89-12.7 91.67-11.4 90.45-10.11 88.94-9.16L88.94-9.16 92.82 0 85.37 0 82.32-7.06 74.48-7.01ZM106.66-13.99L120.67-13.99 120.67-21Q120.67-22.44 120.12-23.72 119.57-25 118.62-25.95 117.67-26.9 116.39-27.45 115.1-28 113.66-28L113.66-28Q112.22-28 110.94-27.45 109.66-26.9 108.71-25.95 107.76-25 107.21-23.72 106.66-22.44 106.66-21L106.66-21 106.66-13.99ZM127.68-21L127.68 0 120.67 0 120.67-7.01 106.66-7.01 106.66 0 99.68 0 99.68-21Q99.68-23.9 100.77-26.45 101.87-29 103.76-30.91 105.66-32.81 108.21-33.91 110.76-35.01 113.66-35.01L113.66-35.01Q116.57-35.01 119.12-33.91 121.67-32.81 123.58-30.91 125.48-29 126.58-26.45 127.68-23.9 127.68-21L127.68-21ZM140.76-13.99L140.76 0 133.75 0 133.75-35.01 140.76-35.01 140.76-21 154.75-21 154.75-35.01 161.76-35.01 161.76 0 154.75 0 154.75-13.99 140.76-13.99Z" opacity="1" transform="matrix(1,0,0,1,0,0)" fill="#598392" class="wordmark-text-0" data-fill-palette-color="primary" id="text-0"></path></svg></g></svg></g></svg></g></svg></g><g><svg viewBox="0 0 105.45738898425941 75.86186257470433" height="75.86186257470433" width="105.45738898425941"><g><svg xmlns="http://www.w3.org/2000/svg" xmlns:xlink="http://www.w3.org/1999/xlink" version="1.1" x="0" y="0" viewBox="9.666427092500705 20.99984173299769 80.6671458149986 58.02874496565117" enable-background="new 0 0 100 100" xml:space="preserve" height="75.86186257470433" width="105.45738898425941" class="icon-icon-0" data-fill-palette-color="accent" id="icon-0"><path d="M32.951 28.716A2 2 0 0 0 30.123 28.716L10.252 48.586A2 2 0 0 0 10.252 51.414L30.123 71.284C30.514 71.675 31.025 71.87 31.537 71.87S32.56 71.675 32.951 71.284A2 2 0 0 0 32.951 68.456L14.494 50 32.951 31.544A2 2 0 0 0 32.951 28.716M89.748 48.586L69.877 28.716A2 2 0 1 0 67.049 31.544L85.506 50 67.049 68.456A2 2 0 1 0 69.877 71.284L89.748 51.414A2 2 0 0 0 89.748 48.586M63.208 21.182A2 2 0 0 0 60.557 22.167L35.807 76.167A2 2 0 1 0 39.443 77.833L64.193 23.833A2 2 0 0 0 63.208 21.182" fill="#598392" data-fill-palette-color="accent"></path></svg></g></svg></g></svg></g></svg></g></svg></g><path d="M193.581 92.021L193.581 28.959 4.299 28.959 4.299 218.241 193.581 218.241 193.581 155.179 190.34 155.179 190.34 215 7.54 215 7.54 32.2 190.34 32.2 190.34 92.021Z" fill="#598392" stroke="transparent" data-fill-palette-color="tertiary"></path></svg></g><defs></defs></svg><rect width="395.52" height="247.2" fill="none" stroke="none" visibility="hidden"></rect></g></svg></g></svg>